<?xml version="1.0" standalone="no"?>
<!DOCTYPE svg PUBLIC "-//W3C//DTD SVG 20010904//EN"
 "http://www.w3.org/TR/2001/REC-SVG-20010904/DTD/svg10.dtd">
<svg version="1.0" xmlns="http://www.w3.org/2000/svg"
 width="264.000000pt" height="113.000000pt" viewBox="0 0 264.000000 113.000000"
 preserveAspectRatio="xMidYMid meet">

<g transform="translate(0.000000,113.000000) scale(0.100000,-0.100000)"
fill="#000000" stroke="none">
<path d="M0 565 l0 -565 1320 0 1320 0 0 565 0 565 -1320 0 -1320 0 0 -565z
m415 394 c52 -15 110 -74 124 -126 13 -49 2 -113 -27 -152 -76 -103 -260 -92
-319 19 -54 101 -11 218 94 255 47 17 76 18 128 4z m435 -34 l0 -35 -85 0 -85
0 0 -40 0 -40 80 0 80 0 0 -35 0 -35 -80 0 -80 0 0 -65 0 -65 -45 0 -45 0 0
175 0 175 130 0 130 0 0 -35z m300 0 l0 -34 -82 -3 -83 -3 0 -35 0 -35 78 -3
77 -3 0 -34 0 -34 -77 -3 -78 -3 -3 -62 -3 -63 -44 0 -45 0 0 175 0 175 130 0
130 0 0 -35z m540 -5 l0 -40 -55 0 -55 0 0 -145 0 -145 -50 0 -50 0 0 144 0
145 -52 3 -53 3 2 35 c1 19 2 36 2 38 1 1 71 2 156 2 l155 0 0 -40z m130 -35
l0 -75 75 0 75 0 0 76 0 75 48 -3 47 -3 3 -182 2 -183 -50 0 -50 0 0 70 0 70
-75 0 -75 0 0 -70 0 -70 -45 0 -45 0 0 185 0 185 45 0 45 0 0 -75z m608 33 l3
-38 -100 0 -101 0 0 -35 0 -35 90 0 90 0 0 -35 0 -34 -87 -3 -88 -3 -3 -32 -3
-33 100 0 101 0 0 -40 0 -40 -145 0 -145 0 0 185 0 186 143 -3 142 -3 3 -37z
m-838 -413 c81 -43 122 -138 95 -226 -35 -116 -195 -168 -303 -97 -112 74
-106 254 11 315 66 34 140 37 197 8z m400 -3 c72 -35 91 -143 36 -201 -14 -15
-26 -31 -26 -35 0 -4 14 -27 30 -51 17 -24 30 -48 30 -54 0 -6 -20 -11 -47
-11 -47 0 -49 1 -75 50 -16 28 -36 51 -45 52 -10 0 -25 2 -33 2 -11 1 -16 -13
-20 -49 l-5 -50 -45 0 -45 0 -3 183 -2 182 107 0 c83 0 116 -4 143 -18z m375
-1 c73 -33 105 -86 105 -169 0 -64 -34 -120 -90 -151 -37 -21 -61 -25 -152
-29 l-108 -5 0 187 0 186 103 0 c78 0 111 -5 142 -19z m-1956 -10 c23 -12 43
-32 51 -51 18 -43 8 -116 -21 -146 -21 -22 -22 -27 -9 -47 7 -12 22 -37 33
-54 l19 -33 -54 0 c-54 0 -54 0 -75 44 -14 29 -29 45 -45 48 -39 7 -48 -1 -48
-48 l0 -44 -45 0 -45 0 0 175 0 175 100 0 c80 0 109 -4 139 -19z m391 -21 l0
-40 -90 0 -90 0 0 -30 0 -30 86 0 85 0 -3 -32 -3 -33 -80 -5 c-78 -5 -80 -6
-83 -32 l-3 -27 93 -3 93 -3 3 -38 3 -38 -141 3 -141 3 -1 155 c0 85 0 163 1
173 1 15 15 17 136 17 l135 0 0 -40z m320 18 c43 -30 45 -37 16 -72 l-23 -30
-28 22 c-54 43 -124 22 -145 -44 -30 -91 61 -157 146 -105 l31 19 19 -26 c26
-34 24 -43 -14 -69 -75 -50 -181 -36 -241 32 -73 83 -46 230 51 278 51 25 147
22 188 -5z"/>
<path d="M323 880 c-38 -15 -58 -61 -54 -123 2 -29 50 -67 86 -67 102 0 128
156 32 189 -35 13 -35 13 -64 1z"/>
<path d="M1426 409 c-56 -67 -16 -179 64 -179 82 0 129 75 96 154 -17 42 -42
56 -94 56 -33 0 -45 -6 -66 -31z"/>
<path d="M1840 385 l0 -55 43 0 c72 0 104 39 77 91 -9 15 -22 19 -65 19 l-55
0 0 -55z"/>
<path d="M2220 335 l0 -105 40 0 c75 0 114 36 114 105 0 69 -39 105 -114 105
l-40 0 0 -105z"/>
<path d="M260 380 l0 -50 44 0 c50 0 76 19 76 54 0 34 -19 46 -72 46 l-48 0 0
-50z"/>
</g>
</svg>
