<?xml version="1.0" encoding="UTF-8"?>
<svg version="1.1" viewBox="0 0 1508 1564" width="1280" height="1280" xmlns="http://www.w3.org/2000/svg">
<path transform="translate(657,131)" d="m0 0h32l23 3 15 4 20 9 16 10 9 7 12 11 3 2 5-1 16-13 16-9 21-8 22-5 14-2 22-1 19 2 19 4 20 8 12 7 12 9 13 12 11 11 10 13 8 14 10 21h32l19 3 24 10 16 9 14 10 12 11 8 9 10 15 8 15 8 22 3 16 1 9v24l-2 18-8 24-8 16-9 13-14 17-8 8-7 5 1 7 5 12 1 5 2 46 32 3 26 4 35 8 23 7 32 13 27 14 22 15 11 9 20 18 11 11 9 11 11 13 11 16 12 19 11 23 10 30 6 25 5 33 2 33v22l-3 32-8 38-8 28-9 21-10 18-14 19-13 21-11 14-8 10-9 10-18 18-14 11-15 11-15 10-23 13-21 10-23 9-21 6-16 3-18 2-16 1h-24v30l-1 164-2 16-7 24-8 16-7 12-9 11h-2l-2 4-16 16-11 9-11 8-16 9-20 8-23 5-17 2h-39l-100-2h-183l-29 1-204 1h-66l-35-3-20-5-15-6-22-11-13-9-11-9-13-13-10-14-11-19-9-19-6-22-3-19-1-18v-41l1-34 1-58v-697l1-24 3-12 1-5-6-9-11-14-10-16-8-16-6-15-5-21-2-19 1-19 5-25 5-14 8-15 10-16 9-11 7-8 10-8 18-11 21-9 17-5 10-2 33-2 7-18 10-18 7-9 9-11 8-7 14-10 21-11 24-8 16-3 13-1h17l22 2 17 4 20 7 15 8 14 11 8 6h5l8-8 6-7 18-13 16-8 17-6 12-3zm10 66-16 3-16 6-15 9-10 8-7 10-11 20-4 5h-11l-17-2h-15l-9 1-7-10-9-13-8-8-14-9-10-5-17-5h-22l-20 5-16 8-13 8-14 12-5 8-11 31v8l-5 9-9 10h-6l-7-3-5-1-18-1-24 2-13 5-15 8-10 7-9 7-4 8-5 16-4 10-1 6v14l4 18 6 16 9 13 10 8 17 7 14 3h8l17-5 6-2 25-4h6l16 24 9 12 10 9 13 8 9 4 15 4 10 2h12l15-3 18-6 21-11 5-5 9-10 9-14 8-15 1-3 19-2h22l5 5 11 21 9 13 12 12 15 9 18 6 12 3h30l23-7 14-7 9-7 13-13 9-14 5-10 2-5 47-1 12 22 10 14 11 11 13 8 12 5 14 4 11 1h22l10-2 15-6 16-9 15-11 7-9 8-14 9-19 2-2h12l19 4 5 5 6 9 2 1h22l16-6 11-7 10-10 7-11 4-9 4-15 1-13-2-15-5-14-6-11-11-12-8-7-16-9-13-5-8-2h-17l-20 4-7 2h-7l-8-6-4-7-10-30-8-16-7-11-14-14-14-10-11-5-10-3-7-1h-17l-20 4-13 5-14 8-11 9-10 11-6 8-4 4-42 1-8 1-10-17-9-13-9-10-10-8-12-6-19-5-9-1zm-347 310-13 7-18 3-1 3 1 6-2 58v17l1 1h10l15-2 10-4 6-3 8 1 23 12 10 5 25 8 10 2 13 1h39l20-2 18-4 18-6 26-13 10-7 8-8 5 1 11 9 20 12 16 8 24 8 24 4 9 1h21l30-4 15-4 22-8 16-8 12-8 8-9 5 1 15 9 13 8 12 7 28 10 14 3 25 3h29l28-4 17-5 18-6 17-8 18-7 4-1 2 5 6 2 7 1h8l2-10 3-46v-23l-1-4-13-5-13-7-5 1-12 17-14 14-15 11-16 9-12 5-13 4-16 2h-38l-21-3-18-4-16-5-13-6-18-10-14-12-6-6-4 2-6 7v2l-4 2-10 7-16 9-19 8-17 5-18 3-21 1-16-1-23-4-19-6-20-8-11-7-10-9-8-7-5-5-5 1-8 8-15 10-21 12-12 5-29 6-21 2h-11l-22-2-23-5-25-9-17-9-7-6-7-10-11-19zm826 195-1 1-1 11-1 29v310h15l24-4 24-7 21-9 18-11 13-11 12-11 13-15 6-8 10-16 9-17 9-24 6-26 2-11v-27l-5-29-5-17-8-17-11-18-11-13-7-8-12-10-15-10-18-10-21-10-18-7-19-4-16-1zm-478 21-16 4-8 5-9 10-8 13-4 9v23l1 18v100l-1 83v155l1 57 2 13 4 10 9 10 10 7 15 6 3 1h13l15-5 10-6 8-8 7-14 2-9v-443l-3-11-7-11-4-5-8-6-10-4-8-2zm215 0-13 4-14 9-8 9-5 13-1 5 1 40 1 53-1 275v69l2 12 6 12 4 5 10 8 10 5 12 3h17l15-5 10-8 7-10 4-10 1-6v-449l-3-9-7-9-8-8-12-6-7-2zm-437 2-13 3-10 5-10 9-8 13-3 12 2 31v239l-1 103v67l3 10 6 10 8 8 10 6 10 4 6 1h16l14-4 11-7 7-8 6-11 2-10v-446l-3-10-6-9-7-7-12-7-12-2zm-158 622-2 3 3 14 5 16 8 19 8 12 12 13 11 8 12 7 19 6 21 3h85l78-2 58-1h176l86 1 99 2h14l16-3 16-7 15-10 16-16 8-13 6-18 2-13v-17l-2-1h-28l-50 4-37 2-192 1h-315l-26-1-44-3-32-6z" fill="#FC6AAF"/>
<path transform="translate(523,298)" d="m0 0h13l14 7 5 4 7 10 5 12 1 16-2 11-10 19-5 5-10 4-5 1h-22l-10-4-7-7-6-10-3-12v-14l2-10 4-9 7-9 11-9z" fill="#FC6AAF"/>
<path transform="translate(769,301)" d="m0 0h17l10 4 8 6 6 9 5 12 2 10-1 10-3 10-7 11-8 8-13 5h-14l-13-4-6-5-7-12-2-7v-19l5-15 5-9 9-10z" fill="#FC6AAF"/>
<path transform="translate(328,349)" d="m0 0h18l8 4 7 7 6 13 1 12-2 10-6 12-7 8-4 2h-15l-9-4-7-6-7-14-1-9 2-13 5-12 5-7z" fill="#FC6AAF"/>
<path transform="translate(896,265)" d="m0 0h15l8 4 7 6 6 12 2 12-3 10-9 10-19 8h-11l-10-5-6-7-4-9-1-11 2-9 6-9 9-8z" fill="#FC6AAF"/>
<path transform="translate(670,249)" d="m0 0 10 1 8 4 9 10 5 11 1 3v7l-4 9-8 9-9 4h-12l-13-5-5-4-6-10-1-3v-13l5-9 7-7 9-6z" fill="#FC6AAF"/>
</svg>
