<?xml version="1.0" standalone="no"?>
<!DOCTYPE svg PUBLIC "-//W3C//DTD SVG 20010904//EN"
 "http://www.w3.org/TR/2001/REC-SVG-20010904/DTD/svg10.dtd">
<svg version="1.0" xmlns="http://www.w3.org/2000/svg"
 width="335.000000pt" height="168.000000pt" viewBox="0 0 335.000000 168.000000"
 preserveAspectRatio="xMidYMid meet">

<g transform="translate(0.000000,168.000000) scale(0.100000,-0.100000)"
fill="#000000" stroke="none">
<path d="M210 1535 c-20 -24 7 -28 150 -23 l129 4 3 -91 c2 -49 3 -296 1 -547
-2 -450 -2 -458 17 -458 20 0 20 10 20 565 l0 565 -154 0 c-124 0 -156 -3
-166 -15z"/>
<path d="M642 1338 l3 -213 2 207 3 208 333 3 332 2 -337 3 -338 2 2 -212z"/>
<path d="M684 1497 c-2 -7 -3 -67 -1 -133 l3 -119 2 123 2 122 310 0 c200 0
310 4 310 10 0 6 -110 10 -310 10 -247 0 -312 -3 -316 -13z"/>
<path d="M187 1483 c-19 -19 4 -23 123 -23 l130 0 0 -520 c0 -456 2 -520 15
-520 13 0 15 66 15 535 l0 535 -138 0 c-76 0 -142 -3 -145 -7z"/>
<path d="M732 1408 l1 -53 6 45 6 45 282 0 c154 0 285 3 289 8 4 4 -126 7
-289 7 l-297 0 2 -52z"/>
<path d="M160 1430 c0 -5 50 -11 118 -12 l117 -3 0 -498 c0 -391 3 -497 13
-497 9 0 12 109 12 510 l0 510 -130 0 c-77 0 -130 -4 -130 -10z"/>
<path d="M775 1288 c3 -72 7 -134 10 -136 3 -3 5 52 5 121 l0 127 259 0 c163
0 262 4 266 10 4 7 -88 10 -270 10 l-276 0 6 -132z"/>
<path d="M140 1379 c0 -7 34 -10 105 -7 l105 3 0 -477 c0 -312 3 -478 10 -478
7 0 10 168 10 485 l0 485 -115 0 c-76 0 -115 -4 -115 -11z"/>
<path d="M820 1338 c0 -21 5 -38 10 -38 6 0 10 11 10 25 l0 25 238 2 c152 2
236 7 234 13 -1 6 -93 10 -247 11 l-245 0 0 -38z"/>
<path d="M120 1340 c0 -6 36 -10 95 -10 l95 0 0 -462 c0 -254 2 -459 5 -456 3
3 5 214 6 469 l0 464 -100 3 c-65 2 -101 -1 -101 -8z"/>
<path d="M940 1321 c0 -5 -8 -12 -17 -14 -10 -3 73 -5 185 -6 173 -1 202 1
202 14 0 13 -27 15 -185 15 -107 0 -185 -4 -185 -9z"/>
<path d="M173 1293 l87 -4 1 -87 c2 -84 2 -85 9 -32 5 30 8 72 9 93 l1 37 -97
-2 -98 -2 88 -3z"/>
<path d="M920 1221 c0 -54 3 -62 31 -85 19 -16 43 -26 63 -26 57 0 150 -30
202 -65 244 -167 174 -537 -116 -611 -121 -31 -247 11 -340 113 -50 54 -80
122 -80 180 0 26 -4 33 -20 33 -26 0 -26 -29 -1 -109 33 -107 101 -180 216
-233 42 -19 66 -23 150 -23 88 1 107 4 156 28 87 42 143 98 186 184 34 68 37
82 37 157 0 70 -4 91 -31 148 -17 37 -51 87 -75 111 -62 62 -164 110 -238 113
-32 1 -68 7 -79 14 -12 6 -21 8 -21 4 0 -3 -7 -1 -15 6 -16 13 -21 35 -6 25 5
-3 11 9 13 26 l3 31 178 -1 c172 -2 177 -1 177 19 0 19 -5 20 -195 20 l-195 0
0 -59z"/>
<path d="M882 1238 c-1 -20 -5 -45 -8 -55 -5 -17 -5 -17 6 0 6 9 9 34 7 55
l-4 37 -1 -37z"/>
<path d="M74 1248 c-3 -4 27 -8 65 -8 l71 0 0 -410 c0 -270 3 -410 10 -410 7
0 9 141 8 418 l-3 417 -73 1 c-40 0 -75 -3 -78 -8z"/>
<path d="M681 1214 c0 -11 3 -14 6 -6 3 7 2 16 -1 19 -3 4 -6 -2 -5 -13z"/>
<path d="M730 1160 c0 -5 5 -10 11 -10 5 0 7 5 4 10 -3 6 -8 10 -11 10 -2 0
-4 -4 -4 -10z"/>
<path d="M690 1146 c0 -32 50 -120 97 -168 54 -55 116 -84 206 -97 104 -15
137 -43 137 -118 0 -73 -66 -119 -145 -99 -33 8 -75 52 -75 77 0 11 -4 19 -9
19 -14 0 5 -59 25 -81 23 -26 79 -42 119 -35 73 14 122 100 95 165 -21 53 -50
70 -144 86 -155 27 -234 88 -286 221 -10 27 -19 41 -20 30z"/>
<path d="M790 1134 c0 -28 79 -117 125 -141 17 -9 63 -19 103 -23 92 -9 144
-43 185 -120 33 -64 34 -110 3 -170 -47 -93 -160 -134 -261 -96 -61 24 -125
97 -125 142 0 19 -4 34 -10 34 -14 0 -12 -45 4 -83 17 -43 85 -101 135 -115
129 -39 261 31 291 156 34 144 -87 272 -258 272 -48 0 -130 56 -161 110 -21
37 -31 48 -31 34z"/>
<path d="M899 1118 c32 -36 74 -54 146 -63 159 -19 265 -135 265 -290 -1 -120
-60 -210 -171 -260 -54 -24 -71 -27 -133 -23 -79 5 -141 31 -194 82 -44 40
-82 116 -82 161 0 24 -4 35 -15 35 -21 0 -19 -48 5 -113 27 -73 104 -146 185
-176 49 -19 74 -22 135 -19 84 5 137 27 199 83 92 83 126 228 82 346 -41 107
-155 192 -261 194 -30 0 -68 7 -85 15 -16 7 -36 14 -43 16 -8 1 -23 11 -35 21
-19 15 -19 14 2 -9z"/>
<path d="M650 1111 c0 -27 55 -117 99 -161 63 -63 115 -88 225 -111 97 -20
119 -35 114 -78 -2 -13 -15 -33 -30 -44 -23 -17 -33 -19 -55 -11 -16 5 -32 19
-38 32 -12 28 -25 29 -18 2 14 -51 88 -66 128 -25 31 30 32 66 3 100 -19 21
-37 28 -93 36 -137 18 -246 94 -305 211 -16 34 -30 56 -30 49z"/>
<path d="M845 1110 c3 -5 8 -10 11 -10 2 0 4 5 4 10 0 6 -5 10 -11 10 -5 0 -7
-4 -4 -10z"/>
<path d="M760 1080 c6 -11 12 -20 14 -20 2 0 2 9 -1 20 -3 11 -9 20 -15 20 -5
0 -4 -9 2 -20z"/>
<path d="M886 1071 c-13 -20 84 -61 142 -61 102 0 194 -71 226 -173 23 -74 16
-127 -27 -197 -67 -111 -202 -146 -324 -84 -72 37 -123 105 -123 165 0 29 -4
39 -16 39 -14 0 -15 -7 -10 -42 18 -114 122 -204 246 -215 112 -11 215 48 266
153 23 48 26 63 22 124 -11 146 -123 250 -270 250 -34 0 -60 7 -88 25 -21 13
-41 21 -44 16z"/>
<path d="M824 1005 c55 -49 103 -69 199 -84 113 -16 164 -74 154 -174 -4 -43
-10 -56 -45 -88 -91 -86 -230 -50 -266 69 -14 46 -15 46 -15 13 -3 -116 160
-189 266 -119 99 65 102 219 5 284 -19 13 -63 26 -114 34 -87 13 -145 39 -187
84 -14 14 -29 26 -35 26 -6 -1 11 -21 38 -45z"/>
<path d="M262 621 c-2 -155 1 -212 9 -204 8 8 8 69 1 214 l-9 204 -1 -214z"/>
</g>
</svg>
